<?xml version="1.0" encoding="UTF-8"?>
<svg id="Layer_2" data-name="Layer 2" xmlns="http://www.w3.org/2000/svg" viewBox="0 0 447.34 230.63">
  <defs>
    <style>
      .cls-1 {
        fill: #eb6b56;
      }

      .cls-1, .cls-2, .cls-3 {
        stroke-width: 0px;
      }

      .cls-2 {
        fill: #ffc153;
      }

      .cls-3 {
        fill: #231f20;
      }
    </style>
  </defs>
  <g id="Layer_1-2" data-name="Layer 1">
    <g>
      <g>
        <g>
          <path class="cls-3" d="m193.34,155.21l-2.7.78,1.24,4.62c.25.91.29,1.63.12,2.17-.17.54-.46.91-.9,1.13-.44.22-.97.33-1.61.33-.56,0-1.01-.08-1.37-.25s-.61-.41-.79-.74c-.18-.33-.26-.75-.26-1.27v-3.85h-2.6v3.85c0,.39-.06.74-.17,1.05s-.33.58-.65.81-.8.35-1.44.37c-.04.02-.09.03-.14.03h-.17c-.7,0-1.28-.09-1.72-.28-.44-.18-.81-.49-1.1-.9-.29-.42-.52-.98-.68-1.71h-.02c-.15-1.01-.32-2.16-.51-3.47l-2.73.43c.72,4.92,1.14,7.75,1.24,8.5.14,1.06.06,1.87-.26,2.44-.32.57-.81,1-1.47,1.29-.66.29-1.64.59-2.95.9-.12.04-.25.07-.37.09-.12.02-.25.05-.37.09-2.05.48-3.68.34-4.9-.4-1.22-.74-1.94-2.01-2.15-3.78-.22-1.78.11-3.92.98-6.42l-2.64-1.06c-1.12,3.23-1.45,6.08-.99,8.56.46,2.48,1.6,4.28,3.43,5.41,1.83,1.13,4.13,1.37,6.9.73.16-.04.33-.08.48-.13.15-.04.33-.08.51-.12,1.65-.41,2.98-.92,3.97-1.52.99-.6,1.73-1.42,2.2-2.47.45-.99.56-2.28.38-3.82.78.48,1.7.73,2.78.73,1.18,0,2.16-.27,2.95-.82.35-.24.63-.52.9-.81.3.35.65.66,1.06.92.77.47,1.66.71,2.7.71,1.22,0,2.29-.3,3.21-.9.92-.6,1.57-1.47,1.94-2.62.37-1.15.35-2.48-.06-3.98l-1.24-4.62Z"/>
          <path class="cls-3" d="m202.95,157.88l-2.76.43,1.24,8.9c.12,1.01,0,1.8-.34,2.37s-.89,1.02-1.61,1.35c-.72.33-1.8.68-3.23,1.05-.17.04-.34.09-.51.14s-.36.1-.54.14l.71,3.01c.21-.04.41-.09.61-.14.2-.05.39-.11.57-.17,1.78-.52,3.19-1.08,4.25-1.69,1.05-.61,1.85-1.43,2.37-2.45.53-1.02.68-2.34.45-3.96l-1.21-8.99Z"/>
          <polygon class="cls-3" points="214.99 170.31 214.99 172.73 223.02 172.73 223.05 170.31 214.99 170.31"/>
          <polygon class="cls-3" points="217.78 175.25 220.29 175.28 220.29 172.3 217.78 172.3 217.78 175.25"/>
          <path class="cls-3" d="m223.17,155.18l-2.7.81,1.21,4.62c.27.91.31,1.63.11,2.17-.2.54-.55.91-1.07,1.13-.52.22-1.17.33-1.95.33h-4.59c-.83,0-1.43-.07-1.81-.22-.38-.14-.65-.41-.79-.79-.14-.38-.24-.99-.28-1.81,0-.08,0-.16-.01-.23-.01-.07-.02-.15-.02-.23l-.56-14.39-2.76.12.56,14.27c.06,1.61.28,2.87.65,3.78.37.91.95,1.57,1.74,1.99.79.41,1.88.62,3.29.62h4.59c1.32,0,2.49-.29,3.5-.87,1.01-.58,1.73-1.43,2.14-2.54.41-1.12.41-2.44,0-3.97l-1.24-4.78Z"/>
          <path class="cls-3" d="m253.17,155.18l-2.7.81,1.21,4.62c.27.91.31,1.63.11,2.17-.2.54-.55.91-1.07,1.13-.52.22-1.17.33-1.95.33h-4.47c-.56,0-.97-.13-1.24-.39-.27-.26-.48-.73-.64-1.41-.16-.68-.34-1.82-.54-3.41l-.03-.22h-.03s-.13-.93-.13-.93l-2.76.43,1.24,8.9c.12,1.01,0,1.8-.34,2.37-.35.57-.89,1.02-1.61,1.35-.72.33-1.8.68-3.23,1.05-.17.04-.34.09-.51.14s-.36.1-.54.14l.71,3.01c.21-.04.41-.09.61-.14.2-.05.39-.11.57-.17,1.78-.52,3.19-1.08,4.25-1.69,1.05-.61,1.85-1.43,2.37-2.45.49-.96.62-2.19.46-3.66.38.1.8.15,1.26.16v.02h4.59c1.32,0,2.49-.29,3.5-.87,1.01-.58,1.73-1.43,2.14-2.54.41-1.12.41-2.44,0-3.97l-1.24-4.78Z"/>
          <polygon class="cls-3" points="244.98 170.5 244.98 172.89 253.04 172.89 253.01 170.5 244.98 170.5"/>
          <polygon class="cls-3" points="283.99 149.16 281.02 149.16 281.02 152.33 284.02 152.36 283.99 149.16"/>
          <path class="cls-3" d="m292.99,146.68l.59,15.32c.02.39-.03.75-.16,1.07-.12.32-.38.59-.76.82s-.94.34-1.66.34h-1.02c-1.49,0-2.68-.02-3.57-.06-.13,0-.22-.02-.34-.02,1.33-.87,2.25-1.82,2.7-2.86.39-.97.43-1.95.12-2.93-.31-.98-.88-1.76-1.71-2.34-.83-.58-1.76-.8-2.79-.65l-7.54,1.09-.77,2.45,3.7,4.95c-1.47.24-3.08.39-4.88.39h-1.77c-.48,0-.85-.12-1.13-.36-.28-.24-.51-.57-.68-.99-.18-.42-.35-1.01-.51-1.75l-.03-.09-2.3-9.15-2.73.74,2.33,9.12v.09s0,.02.01.03c.16.7.08,1.27-.29,1.69-.39.44-1.21.67-2.45.67h-2.23c-.7,0-1.23-.07-1.58-.22-.35-.14-.58-.4-.68-.78v-.06c-.04-.21-.07-.44-.09-.71-.02-.27-.03-.52-.03-.74h-2.54c0,.35.01.71.03,1.09.02.37.05.68.09.93.04.7.28,1.32.71,1.86.43.54,1.04.96,1.81,1.27.78.31,1.69.47,2.75.47h1.4c1.59,0,2.86-.28,3.81-.85.39-.23.68-.51.97-.81.28.35.59.67.94.93.65.49,1.46.73,2.43.73h1.77c1.69,0,3.54-.26,5.52-.77.52-.14.99-.33,1.48-.49.22.14.42.3.66.41.85.38,1.82.62,2.93.71,1.1.09,2.68.14,4.73.14h.78c1.22,0,2.24-.26,3.05-.77.82-.52,1.42-1.19,1.8-2.02.38-.83.55-1.71.51-2.67l-.59-15.35-2.79.15Zm-7.69,11.44c.29-.02.55.04.79.19.24.14.4.35.48.62.08.27.06.54-.06.81-.29,1.06-.96,1.91-2.02,2.56-.49.3-1.06.56-1.67.79l-3.26-4.22,5.74-.74Z"/>
          <polygon class="cls-3" points="300.37 146.68 301.18 167.43 303.94 167.3 303.16 146.53 300.37 146.68"/>
          <path class="cls-3" d="m333.52,161.66c-.14-1.32-.5-2.49-1.05-3.5-.56-1.01-1.28-1.79-2.17-2.33-.89-.54-1.88-.77-2.98-.71-1.12.04-2.09.4-2.93,1.07-.84.67-1.46,1.53-1.88,2.58-.41,1.04-.58,2.11-.5,3.21.08,1.01.36,1.91.84,2.68.47.77,1.11,1.38,1.89,1.81.79.43,1.66.65,2.64.65.79,0,1.51-.04,2.17-.12.66-.08,1.2-.17,1.61-.25l.09.93c.06.7-.1,1.28-.48,1.74-.38.46-.96.84-1.72,1.15-.77.31-1.8.61-3.1.9-.12.02-.25.05-.37.08-.12.03-.25.06-.37.08-2.05.48-3.68.34-4.9-.4-1.22-.74-1.94-2.01-2.15-3.78-.22-1.78.11-3.92.98-6.42l-2.64-1.06c-1.12,3.23-1.45,6.08-.99,8.56.46,2.48,1.6,4.28,3.43,5.41,1.83,1.13,4.13,1.37,6.9.73,2.23-.5,3.95-1.04,5.16-1.63s2.06-1.38,2.56-2.37c.5-.99.66-2.32.5-3.97l-.53-5.02Zm-4.14,2.23c-.59.08-1.26.13-2,.13s-1.37-.2-1.81-.61c-.44-.4-.7-.96-.76-1.66-.04-.58.04-1.14.23-1.67.2-.54.5-.98.91-1.32.41-.34.92-.52,1.52-.54.89-.04,1.63.28,2.22.96s.95,1.64,1.07,2.88l.16,1.58c-.43.08-.95.17-1.54.25Z"/>
          <polygon class="cls-3" points="331.41 152.2 331.38 149.81 323.35 149.81 323.35 152.2 331.41 152.2"/>
          <path class="cls-3" d="m343.42,157.88l-2.76.43,1.24,8.9c.12,1.01,0,1.8-.34,2.37s-.89,1.02-1.61,1.35c-.72.33-1.8.68-3.23,1.05-.17.04-.34.09-.51.14s-.36.1-.54.14l.71,3.01c.21-.04.41-.09.61-.14.2-.05.39-.11.57-.17,1.78-.52,3.19-1.08,4.25-1.69,1.05-.61,1.85-1.43,2.37-2.45.53-1.02.68-2.34.45-3.96l-1.21-8.99Z"/>
          <path class="cls-3" d="m358.67,158.39c-.56-1.02-1.28-1.8-2.17-2.34-.89-.54-1.88-.77-2.98-.71-1.12.04-2.09.4-2.93,1.07-.84.67-1.46,1.53-1.88,2.58-.41,1.04-.58,2.12-.5,3.24.08.99.36,1.88.84,2.65.48.77,1.1,1.38,1.88,1.81s1.66.65,2.65.65,2.03-.07,2.98-.2c.31-.04.59-.1.88-.15l.02.22c.08,1.05-.05,1.84-.39,2.37-.34.53-.99.96-1.94,1.29-.95.33-2.52.72-4.71,1.18-.17.04-.34.08-.53.11-.18.03-.37.07-.56.11l.53,3.04s.08-.03.11-.03h.08c2.9-.6,5.05-1.18,6.47-1.75,1.42-.57,2.43-1.36,3.05-2.37.62-1.02.84-2.43.65-4.25l-.53-4.99c-.12-1.32-.46-2.49-1.02-3.52Zm-2.48,5.68c-.83.11-1.7.17-2.61.17-.77,0-1.37-.2-1.83-.61-.45-.4-.71-.96-.77-1.66-.04-.58.03-1.14.23-1.67.2-.54.5-.98.92-1.32.41-.34.92-.52,1.52-.54.89-.04,1.63.28,2.23.96.6.68.96,1.64,1.09,2.88l.16,1.63c-.29.05-.6.11-.94.16Z"/>
          <polygon class="cls-3" points="387.98 156.02 387.95 153.63 379.92 153.63 379.92 156.02 387.98 156.02"/>
          <polygon class="cls-3" points="420.42 151.49 417.45 151.49 417.45 154.65 420.45 154.68 420.42 151.49"/>
          <path class="cls-3" d="m446.58,158.41c-.51-.95-1.21-1.7-2.11-2.25-.9-.55-1.89-.82-2.96-.82-.97,0-1.84.23-2.62.68-.77.46-1.5,1.08-2.17,1.86-.67.79-1.54,1.92-2.59,3.41l-2.16,2.95h0c-.5,0-.87-.18-1.12-.54s-.34-.89-.28-1.6l.34-3.82-2.79-.25-.34,3.81c-.06.85-.35,1.46-.85,1.81-.5.36-1.21.54-2.13.57-.57,0-1.03-.08-1.36-.23-.35-.16-.61-.4-.78-.73s-.28-.81-.34-1.43l-.34-3.81-2.79.25.34,3.82c.08.7-.08,1.24-.5,1.6-.41.36-1.11.54-2.08.54h-2.26c-1.49,0-2.68-.02-3.57-.06-.13,0-.22-.02-.34-.02,1.33-.87,2.25-1.82,2.7-2.86.39-.97.43-1.95.12-2.93-.31-.98-.88-1.76-1.71-2.34-.83-.58-1.76-.8-2.79-.65l-7.54,1.09-.77,2.45,3.7,4.95c-1.47.24-3.08.39-4.88.39h-.25c-.62,0-1.11-.08-1.46-.23s-.61-.4-.78-.73c-.16-.33-.28-.81-.34-1.43l-.34-3.81-2.79.25.34,3.82c.08.7-.08,1.24-.5,1.6-.41.36-1.11.54-2.08.54h-7.47c-2.23,0-3.93-.02-5.09-.06-1.16-.04-1.97-.1-2.43-.17s-.86-.18-1.19-.33l-.03-.03h-.03c-.64-.27-1.05-.64-1.22-1.12-.18-.47-.16-1.13.05-1.95l1.18-4.53-2.67-.81-1.15,4.43c-.43,1.57-.41,2.96.06,4.16.48,1.2,1.35,2.09,2.64,2.67h.06c.54.25,1.12.43,1.74.54.62.12,1.53.19,2.73.23,1.2.04,2.99.06,5.36.06h7.47c1.16,0,2.16-.23,3.01-.68.39-.21.73-.47,1.02-.77.04.04.07.09.11.13.84.82,2.01,1.24,3.49,1.3v.02h.56c1.69,0,3.54-.26,5.52-.77.52-.14.99-.33,1.48-.49.22.14.42.3.66.41.85.38,1.82.62,2.93.71s2.69.14,4.76.14h1.98c1.18,0,2.19-.23,3.02-.68.39-.21.72-.47,1.01-.76.04.04.07.09.1.13.84.82,2.01,1.24,3.49,1.3v.02h.16s.04,0,.06,0c.03,0,.06,0,.1,0v-.02c1.03-.04,1.95-.24,2.74-.62.46-.22.86-.51,1.22-.84.22.28.46.54.75.75.64.47,1.4.7,2.26.72h0s9.65.01,9.65.01c1.03,0,2-.26,2.9-.79s1.61-1.24,2.14-2.12c.53-.89.79-1.84.79-2.85,0-1.16-.25-2.21-.76-3.16Zm-36.58-.28c.29-.02.55.04.79.19.24.14.4.35.48.62.08.27.06.54-.06.81-.29,1.06-.96,1.91-2.02,2.56-.49.3-1.06.56-1.67.79l-3.26-4.22,5.74-.74Zm34.15,4.72c-.29.41-.67.75-1.13,1.01-.46.26-.97.39-1.5.39h-5.99l.87-1.21c.85-1.22,1.52-2.13,2.02-2.73.5-.6.99-1.06,1.47-1.38.49-.32,1.03-.48,1.63-.48.89,0,1.62.29,2.2.88.58.59.87,1.34.87,2.25,0,.43-.14.86-.43,1.27Z"/>
        </g>
        <g>
          <path class="cls-3" d="m216.52,65.67l-.02-.02c-1.23-1.51-2.6-2.87-4.06-4.06-5.04-4.1-11.39-6.36-17.89-6.36h-33.51v77.58h8.66v-20.95h24.86c6.51,0,12.85-2.26,17.89-6.36,1.47-1.19,2.83-2.57,4.08-4.08,4.1-5.02,6.36-11.38,6.36-17.89s-2.26-12.85-6.36-17.87Zm-21.97,37.54h-24.86v-39.32h24.86c10.84,0,19.67,8.81,19.67,19.65s-8.83,19.67-19.67,19.67Z"/>
          <path class="cls-3" d="m362.08,109.58c-.9-.75-1.86-1.44-2.83-2.05.98-.61,1.93-1.3,2.82-2.03,1.51-1.21,2.89-2.59,4.1-4.08,4.1-5.02,6.36-11.38,6.36-17.89s-2.26-12.85-6.36-17.87c-1.21-1.49-2.59-2.87-4.08-4.08-5.04-4.1-11.38-6.36-17.89-6.36h-33.51v77.58h8.66v-20.95h24.86c10.84,0,19.67,8.83,19.67,19.67v1.28h8.66v-1.28c0-6.51-2.26-12.87-6.36-17.89-1.19-1.46-2.57-2.83-4.08-4.06Zm-42.75-45.69h24.86c10.84,0,19.67,8.81,19.67,19.65s-8.83,19.67-19.67,19.67h-24.86v-39.32Z"/>
          <path class="cls-3" d="m447.34,111.27c0,5.69-2.2,11.05-6.19,15.09-.08.1-.19.21-.33.33-4,3.95-9.37,6.13-15.05,6.13h-34.34v-8.66h34.34c7.11,0,12.91-5.78,12.91-12.89s-5.8-12.93-12.91-12.93h-18.71c-5.69,0-11.05-2.18-15.11-6.17-.08-.08-.19-.19-.31-.33-3.95-4.02-6.15-9.38-6.15-15.05s2.2-11.05,6.17-15.11l.33-.33c4.02-3.95,9.38-6.13,15.07-6.13h34.17v8.66h-34.17c-7.12,0-12.91,5.78-12.91,12.91s5.78,12.91,12.91,12.91h18.71c5.67,0,11.03,2.18,15.09,6.17l.19.19c4.08,4.14,6.28,9.5,6.28,15.21Z"/>
          <path class="cls-3" d="m291.36,67.39c-1.67-2.2-3.62-4.16-5.8-5.82-5.44-4.16-11.91-6.34-18.77-6.34s-13.33,2.18-18.75,6.34c-2.2,1.67-4.16,3.62-5.82,5.82-4.16,5.42-6.34,11.89-6.34,18.75v46.67h8.66v-20.95h44.51v20.95h8.66v-46.67c0-6.86-2.18-13.33-6.34-18.75Zm-46.83,35.81v-17.06c0-12.28,9.98-22.25,22.25-22.25s22.25,9.98,22.25,22.25v17.06h-44.51Z"/>
        </g>
      </g>
      <g>
        <path class="cls-2" d="m63.61,199.04v-34.79c-3.58.43-7.01,1.34-10.21,2.68-.2.09-.4.19-.6.28-.86.38-1.71.78-2.54,1.22-.28.15-.56.32-.83.48-.72.41-1.44.83-2.13,1.29-.32.21-.62.43-.93.65-.63.44-1.25.89-1.85,1.37-.33.26-.64.54-.96.81-.55.47-1.09.95-1.61,1.45-.32.31-.64.63-.95.95-.48.5-.96,1.01-1.41,1.53-.31.35-.61.71-.9,1.07-.43.53-.84,1.07-1.23,1.62-.28.39-.56.78-.83,1.18-.37.56-.72,1.13-1.06,1.7-.25.42-.5.84-.73,1.28-.32.59-.61,1.19-.9,1.8-.21.45-.43.89-.62,1.34-.27.63-.5,1.27-.74,1.92-.17.46-.34.91-.49,1.38-.22.68-.39,1.38-.57,2.08-.12.45-.25.9-.35,1.36-.17.78-.29,1.58-.41,2.38-.06.39-.14.78-.19,1.17-.15,1.21-.24,2.43-.27,3.67v14.8s33.34-16.67,33.34-16.67Z"/>
        <path class="cls-2" d="m124.34,14.87l-51.55,25.77v53.11c.4-.03.81-.06,1.21-.1.26-.03.53-.05.79-.08.69-.08,1.37-.17,2.05-.28.2-.03.4-.06.6-.09.75-.12,1.49-.26,2.23-.41.13-.03.26-.05.4-.08.81-.17,1.62-.36,2.42-.57.06-.01.11-.03.17-.04,6.98-1.84,13.42-4.97,19.05-9.14.04-.03.07-.06.11-.09.65-.48,1.29-.98,1.91-1.49.11-.09.21-.18.32-.27.55-.45,1.09-.92,1.62-1.39.15-.14.3-.28.46-.42.48-.44.95-.88,1.41-1.33.18-.18.35-.36.53-.53.43-.43.85-.86,1.26-1.3.19-.21.38-.42.57-.63.38-.42.76-.85,1.13-1.28.2-.24.4-.48.6-.72.34-.42.68-.84,1.02-1.27.2-.26.4-.53.6-.8.31-.42.62-.84.92-1.27.2-.28.4-.57.59-.86.29-.42.57-.85.84-1.28.19-.3.38-.61.57-.92.26-.43.51-.86.76-1.29.18-.32.37-.65.55-.97.23-.43.46-.86.69-1.3.17-.34.35-.68.51-1.02.21-.44.42-.88.62-1.32.16-.35.32-.7.47-1.06.19-.44.37-.89.55-1.34.15-.36.29-.73.43-1.1.17-.45.33-.91.49-1.37.13-.37.26-.75.38-1.12.15-.46.29-.93.42-1.4.11-.38.23-.76.33-1.14.13-.48.25-.97.36-1.46.09-.38.19-.75.27-1.13.11-.5.21-1.01.3-1.52.07-.37.15-.74.21-1.12.09-.54.16-1.08.24-1.62.05-.35.11-.71.15-1.06.07-.6.12-1.21.18-1.82.03-.3.06-.61.09-.91.07-.91.11-1.84.14-2.76.02-.51.02-.99.02-1.45V14.87Z"/>
        <path class="cls-3" d="m133.53,0L63.61,34.96v59H19.8L0,133.52h37.81c27.19,0,53.19-11.63,71.34-31.9l1.17-1.33v-.02c14.56-16.88,22.77-38.34,23.18-60.65,0-.03,0-.06,0-.08,0-.01,0-.03,0-.04,0-.02,0-.04,0-.06h0c.02-.54.02-1.1.02-1.64V0Zm-31.88,96.22c-16.37,17.88-39.58,28.11-63.83,28.11H14.89l10.59-21.18h42.72c.31,0,.63,0,.94-.02,13.65-.19,26.25-4.5,36.62-11.76-1.11,1.4-2.26,2.77-3.45,4.11l-.66.75Zm22.54-54.21c-.02.31-.06.61-.09.91-.05.61-.11,1.21-.18,1.82-.04.36-.1.71-.15,1.06-.08.54-.15,1.08-.24,1.62-.06.38-.14.75-.21,1.12-.1.51-.19,1.02-.3,1.52-.08.38-.18.76-.27,1.13-.12.49-.23.98-.36,1.46-.1.38-.22.76-.33,1.14-.14.47-.27.94-.42,1.4-.12.38-.25.75-.38,1.12-.16.46-.32.92-.49,1.37-.14.37-.28.73-.43,1.1-.18.45-.36.9-.55,1.34-.15.36-.31.71-.47,1.06-.2.44-.41.88-.62,1.32-.17.34-.34.68-.51,1.02-.22.44-.45.87-.69,1.3-.18.33-.36.65-.55.97-.25.43-.5.87-.76,1.29-.19.31-.38.61-.57.92-.27.43-.55.86-.84,1.28-.19.29-.39.58-.59.86-.3.43-.61.85-.92,1.27-.2.27-.4.53-.6.8-.33.43-.67.85-1.02,1.27-.2.24-.39.48-.6.72-.37.43-.75.86-1.13,1.28-.19.21-.38.42-.57.63-.41.44-.83.87-1.26,1.3-.18.18-.35.36-.53.53-.46.45-.94.89-1.41,1.33-.15.14-.3.28-.46.42-.53.47-1.07.94-1.62,1.39-.11.09-.21.18-.32.27-.63.51-1.27,1.01-1.91,1.49-.04.03-.07.06-.11.09-5.62,4.17-12.06,7.3-19.05,9.14-.06.01-.11.03-.17.04-.8.21-1.6.4-2.42.57-.13.03-.26.05-.4.08-.74.15-1.48.29-2.23.41-.2.03-.4.06-.6.09-.68.1-1.36.2-2.05.28-.26.03-.53.05-.79.08-.4.04-.81.07-1.21.1v-53.11l51.55-25.77v22.93c0,.46,0,.94-.02,1.45-.02.93-.07,1.85-.14,2.76Z"/>
        <path class="cls-1" d="m69.14,103.13c-.31.02-.63.02-.94.02H25.48l-10.59,21.18h22.93c24.25,0,47.46-10.23,63.83-28.11l.66-.75c1.2-1.34,2.35-2.7,3.45-4.11-10.37,7.26-22.97,11.57-36.62,11.76Z"/>
        <path class="cls-1" d="m89.45,142.7c-15.17,0-29.75,5.86-40.7,16.22,5.71-2.57,12.03-4.03,18.69-4.13.25-.02.51-.02.76-.02h29.06l6.04-12.07h-13.85Z"/>
        <path class="cls-3" d="m38.5,156.3l-1.17,1.33v.03c-10.21,12.01-15.97,27.23-16.24,43.06h0s0,.05,0,.08v29.83l51.71-25.91v-40.75l30.14-.02,15.2-30.44h-28.68c-19.42,0-37.99,8.3-50.95,22.78Zm-7.95,40.95c.05-.4.13-.78.19-1.17.12-.8.24-1.6.41-2.38.1-.46.23-.9.35-1.36.18-.7.36-1.4.57-2.08.15-.47.33-.92.49-1.38.23-.65.47-1.29.74-1.92.19-.46.41-.9.62-1.34.29-.61.58-1.21.9-1.8.23-.43.48-.86.73-1.28.34-.58.69-1.15,1.06-1.7.27-.4.54-.79.83-1.18.4-.55.81-1.09,1.23-1.62.29-.36.59-.72.9-1.07.46-.52.93-1.03,1.41-1.53.31-.32.62-.64.95-.95.52-.5,1.06-.98,1.61-1.45.32-.27.63-.55.96-.81.6-.48,1.22-.93,1.85-1.37.31-.22.61-.44.93-.65.69-.46,1.41-.88,2.13-1.29.28-.16.55-.33.83-.48.83-.44,1.68-.84,2.54-1.22.2-.09.4-.19.6-.28,3.2-1.35,6.63-2.26,10.21-2.68v34.79l-33.34,16.67v-14.8c.03-1.24.13-2.46.27-3.67Zm37.66-42.48c-.25,0-.51,0-.76.02-6.66.1-12.98,1.57-18.69,4.13,10.95-10.36,25.53-16.22,40.7-16.22h13.85l-6.04,12.07h-29.06Z"/>
      </g>
    </g>
  </g>
</svg>